<?xml version="1.0" encoding="UTF-8" standalone="no"?>
<!DOCTYPE svg PUBLIC "-//W3C//DTD SVG 1.1//EN" "http://www.w3.org/Graphics/SVG/1.1/DTD/svg11.dtd">
<svg width="100%" height="100%" viewBox="0 0 744 164" version="1.1" xmlns="http://www.w3.org/2000/svg" xmlns:xlink="http://www.w3.org/1999/xlink" xml:space="preserve" xmlns:serif="http://www.serif.com/" style="fill-rule:evenodd;clip-rule:evenodd;stroke-linejoin:round;stroke-miterlimit:2;">
    <g transform="matrix(1,0,0,1,-140.043,-519.695)">
        <g transform="matrix(3.14757,0,0,3.14757,-2423.37,-5975.73)">
            <text x="853.279px" y="2076.85px" style="font-family:'CenturyGothic', 'Century Gothic', sans-serif;font-size:17.952px;fill:white;">P O W E R E D   B Y</text>
        </g>
        <g transform="matrix(0.625823,0,0,0.625823,-22.0235,580.648)">
            <g transform="matrix(1.49561,0,0,1.49561,838.121,-878.911)">
                <g transform="matrix(144,0,0,144,65.6934,694.17)">
                    <path d="M0.421,-0.736C0.523,-0.736 0.61,-0.7 0.683,-0.626C0.756,-0.552 0.793,-0.463 0.793,-0.357C0.793,-0.252 0.757,-0.163 0.685,-0.091C0.613,-0.018 0.525,0.018 0.422,0.018C0.315,0.018 0.225,-0.019 0.154,-0.094C0.083,-0.168 0.047,-0.257 0.047,-0.359C0.047,-0.428 0.063,-0.491 0.097,-0.549C0.13,-0.606 0.176,-0.652 0.234,-0.686C0.292,-0.719 0.354,-0.736 0.421,-0.736ZM0.42,-0.603C0.354,-0.603 0.298,-0.579 0.252,-0.533C0.207,-0.487 0.185,-0.428 0.185,-0.357C0.185,-0.278 0.213,-0.215 0.27,-0.168C0.314,-0.132 0.365,-0.114 0.422,-0.114C0.487,-0.114 0.542,-0.138 0.588,-0.185C0.633,-0.231 0.656,-0.289 0.656,-0.358C0.656,-0.426 0.633,-0.484 0.587,-0.531C0.542,-0.579 0.486,-0.603 0.42,-0.603Z" style="fill:white;fill-rule:nonzero;"/>
                </g>
                <g transform="matrix(144,0,0,144,186.631,694.17)">
                    <rect x="0.072" y="-0.718" width="0.136" height="0.718" style="fill:white;fill-rule:nonzero;"/>
                </g>
                <g transform="matrix(144,0,0,144,226.92,694.17)">
                    <path d="M0.742,-0.592L0.646,-0.5C0.581,-0.569 0.508,-0.604 0.427,-0.604C0.358,-0.604 0.3,-0.58 0.253,-0.533C0.206,-0.486 0.183,-0.429 0.183,-0.36C0.183,-0.312 0.193,-0.27 0.214,-0.232C0.235,-0.195 0.264,-0.166 0.302,-0.145C0.34,-0.124 0.383,-0.113 0.429,-0.113C0.469,-0.113 0.505,-0.121 0.538,-0.135C0.571,-0.15 0.607,-0.177 0.646,-0.216L0.739,-0.12C0.686,-0.068 0.636,-0.032 0.589,-0.012C0.542,0.008 0.488,0.018 0.427,0.018C0.316,0.018 0.224,-0.017 0.153,-0.088C0.082,-0.159 0.046,-0.25 0.046,-0.36C0.046,-0.432 0.063,-0.496 0.095,-0.551C0.127,-0.607 0.174,-0.652 0.234,-0.686C0.295,-0.719 0.36,-0.736 0.429,-0.736C0.488,-0.736 0.545,-0.724 0.6,-0.699C0.655,-0.674 0.702,-0.638 0.742,-0.592Z" style="fill:white;fill-rule:nonzero;"/>
                </g>
                <g transform="matrix(144,0,0,144,339.209,694.17)">
                    <path d="M0.083,-0.718L0.475,-0.718L0.475,-0.584L0.218,-0.584L0.218,-0.455L0.475,-0.455L0.475,-0.323L0.218,-0.323L0.218,-0.134L0.475,-0.134L0.475,0L0.083,0L0.083,-0.718Z" style="fill:white;fill-rule:nonzero;"/>
                </g>
            </g>
            <g transform="matrix(1,0,0,1,-136.441,-89.2607)">
                <g transform="matrix(215.368,0,0,215.368,376.688,248.558)">
                    <path d="M0.087,-0.718L0.23,-0.718C0.312,-0.718 0.367,-0.715 0.396,-0.708C0.437,-0.697 0.471,-0.677 0.497,-0.645C0.523,-0.614 0.536,-0.574 0.536,-0.527C0.536,-0.479 0.523,-0.44 0.498,-0.408C0.472,-0.377 0.437,-0.356 0.393,-0.346C0.36,-0.338 0.299,-0.334 0.21,-0.334L0.159,-0.334L0.159,0L0.087,0L0.087,-0.718ZM0.159,-0.648L0.159,-0.404L0.28,-0.403C0.329,-0.403 0.365,-0.407 0.388,-0.416C0.411,-0.425 0.429,-0.44 0.442,-0.46C0.455,-0.48 0.461,-0.502 0.461,-0.527C0.461,-0.551 0.455,-0.573 0.442,-0.593C0.429,-0.613 0.412,-0.627 0.39,-0.636C0.369,-0.644 0.334,-0.648 0.286,-0.648L0.159,-0.648Z" style="fill:white;fill-rule:nonzero;"/>
                </g>
                <g transform="matrix(215.368,0,0,215.368,504.142,248.558)">
                    <rect x="0.077" y="-0.718" width="0.072" height="0.718" style="fill:white;fill-rule:nonzero;"/>
                </g>
                <g transform="matrix(215.368,0,0,215.368,552.831,248.558)">
                    <path d="M0.756,-0.585L0.7,-0.542C0.668,-0.582 0.631,-0.613 0.587,-0.634C0.543,-0.655 0.495,-0.666 0.443,-0.666C0.386,-0.666 0.333,-0.652 0.284,-0.624C0.235,-0.597 0.197,-0.56 0.17,-0.513C0.143,-0.467 0.13,-0.415 0.13,-0.357C0.13,-0.269 0.16,-0.196 0.22,-0.138C0.28,-0.079 0.356,-0.05 0.447,-0.05C0.548,-0.05 0.632,-0.089 0.7,-0.168L0.756,-0.125C0.721,-0.079 0.676,-0.044 0.622,-0.019C0.569,0.006 0.509,0.018 0.443,0.018C0.317,0.018 0.218,-0.024 0.146,-0.107C0.085,-0.178 0.054,-0.263 0.054,-0.363C0.054,-0.468 0.091,-0.557 0.165,-0.629C0.239,-0.7 0.331,-0.736 0.442,-0.736C0.509,-0.736 0.569,-0.723 0.624,-0.697C0.678,-0.67 0.722,-0.633 0.756,-0.585Z" style="fill:white;fill-rule:nonzero;"/>
                </g>
                <g transform="matrix(215.368,0,0,215.368,727.923,248.558)">
                    <path d="M0.43,-0.736C0.538,-0.736 0.629,-0.7 0.703,-0.627C0.776,-0.555 0.813,-0.465 0.813,-0.359C0.813,-0.254 0.776,-0.165 0.703,-0.092C0.63,-0.019 0.541,0.018 0.436,0.018C0.329,0.018 0.239,-0.018 0.166,-0.091C0.093,-0.164 0.056,-0.252 0.056,-0.356C0.056,-0.425 0.073,-0.489 0.106,-0.548C0.14,-0.607 0.185,-0.653 0.243,-0.686C0.3,-0.72 0.363,-0.736 0.43,-0.736ZM0.433,-0.666C0.38,-0.666 0.33,-0.652 0.282,-0.625C0.235,-0.597 0.198,-0.56 0.171,-0.513C0.144,-0.466 0.131,-0.414 0.131,-0.356C0.131,-0.271 0.16,-0.199 0.219,-0.14C0.279,-0.081 0.35,-0.052 0.433,-0.052C0.489,-0.052 0.54,-0.065 0.588,-0.092C0.635,-0.119 0.672,-0.156 0.698,-0.203C0.725,-0.25 0.738,-0.302 0.738,-0.359C0.738,-0.416 0.725,-0.468 0.698,-0.514C0.672,-0.56 0.635,-0.597 0.586,-0.625C0.538,-0.652 0.487,-0.666 0.433,-0.666Z" style="fill:white;fill-rule:nonzero;"/>
                </g>
            </g>
            <g transform="matrix(1,0,0,1,-43.9205,-803.046)">
                <path d="M928.145,953.641C927.885,954.364 927.686,955.112 927.364,955.809C926.867,956.886 925.161,960.101 925.161,960.101C922.526,963.753 918.283,966.116 913.533,963.434C908.011,960.316 905.608,953.635 902.98,947.43C893.938,926.082 888.033,903.623 877.789,882.661C874.482,875.893 871.104,868.337 865.08,864.618C860.881,862.026 855.462,867.388 852.084,872.036C846.827,879.269 843.129,887.66 840.469,896.103C840.469,896.103 839.64,897.772 839.64,897.772C838.758,898.904 837.566,899.781 836.196,900.122C835.034,900.411 834.985,900.308 834.59,900.297C830.947,900.203 828.015,896.392 829.009,892.549C829.018,892.516 828.992,892.604 828.969,892.692C834.619,870.176 838.871,846.606 849.77,825.776C852.907,819.781 856.751,813.48 864.043,813.312C864.29,813.312 864.289,813.312 864.536,813.316C871.73,813.591 877.265,820.028 880.877,825.365C894.66,845.728 914.826,899.142 916.683,901.782L951.266,805.41L981.553,805.41L933.553,938.631C933.553,938.631 929.177,950.778 928.145,953.641Z" style="fill:white;"/>
            </g>
        </g>
    </g>
</svg>
