<?xml version="1.0" encoding="UTF-8" standalone="no"?>
<!DOCTYPE svg PUBLIC "-//W3C//DTD SVG 1.1//EN" "http://www.w3.org/Graphics/SVG/1.1/DTD/svg11.dtd">
<svg width="100%" height="100%" viewBox="0 0 458 458" version="1.1" xmlns="http://www.w3.org/2000/svg" xmlns:xlink="http://www.w3.org/1999/xlink" xml:space="preserve" xmlns:serif="http://www.serif.com/" style="fill-rule:evenodd;clip-rule:evenodd;stroke-linejoin:round;stroke-miterlimit:2;">
    <g transform="matrix(1.69089,0,0,1.69089,-238.369,-1179.33)">
        <g>
            <g transform="matrix(1,0,0,1,-639.585,-289.729)">
                <circle cx="915.99" cy="1122.62" r="133.066" style="fill:rgb(255,55,133);"/>
            </g>
            <g transform="matrix(1.1324,0,0,1.1324,-758.311,-162.476)">
                <path d="M928.145,953.641C927.885,954.364 927.686,955.112 927.364,955.809C926.867,956.886 925.161,960.101 925.161,960.101C922.526,963.753 918.283,966.116 913.533,963.434C908.011,960.316 905.608,953.635 902.98,947.43C893.938,926.082 888.033,903.623 877.789,882.661C874.482,875.893 871.104,868.337 865.08,864.618C860.881,862.026 855.462,867.388 852.084,872.036C846.827,879.269 843.129,887.66 840.469,896.103L839.64,897.772C838.758,898.904 837.566,899.781 836.196,900.122C835.034,900.411 834.985,900.308 834.59,900.297C830.947,900.203 828.015,896.392 829.009,892.549C829.018,892.516 828.992,892.604 828.969,892.692C834.619,870.176 838.871,846.606 849.77,825.776C852.907,819.781 856.751,813.48 864.043,813.312C864.29,813.312 864.289,813.312 864.536,813.316C871.73,813.591 877.265,820.028 880.877,825.365C894.66,845.728 914.826,899.142 916.683,901.782L951.266,805.41L981.553,805.41L933.553,938.631C933.553,938.631 929.177,950.778 928.145,953.641Z" style="fill:white;"/>
            </g>
        </g>
    </g>
</svg>
